<svg width="23" height="13" viewBox="0 0 23 13" fill="none" xmlns="http://www.w3.org/2000/svg">
<path d="M3.04688 5.60938H4.13281C4.8151 5.59896 5.35156 5.41927 5.74219 5.07031C6.13281 4.72135 6.32812 4.25 6.32812 3.65625C6.32812 2.32292 5.66406 1.65625 4.33594 1.65625C3.71094 1.65625 3.21094 1.83594 2.83594 2.19531C2.46615 2.54948 2.28125 3.02083 2.28125 3.60938H0.835938C0.835938 2.70833 1.16406 1.96094 1.82031 1.36719C2.48177 0.768229 3.32031 0.46875 4.33594 0.46875C5.40885 0.46875 6.25 0.752604 6.85938 1.32031C7.46875 1.88802 7.77344 2.67708 7.77344 3.6875C7.77344 4.18229 7.61198 4.66146 7.28906 5.125C6.97135 5.58854 6.53646 5.9349 5.98438 6.16406C6.60938 6.36198 7.09115 6.6901 7.42969 7.14844C7.77344 7.60677 7.94531 8.16667 7.94531 8.82812C7.94531 9.84896 7.61198 10.6589 6.94531 11.2578C6.27865 11.8568 5.41146 12.1562 4.34375 12.1562C3.27604 12.1562 2.40625 11.8672 1.73438 11.2891C1.06771 10.7109 0.734375 9.94792 0.734375 9H2.1875C2.1875 9.59896 2.38281 10.0781 2.77344 10.4375C3.16406 10.7969 3.6875 10.9766 4.34375 10.9766C5.04167 10.9766 5.57552 10.7943 5.94531 10.4297C6.3151 10.0651 6.5 9.54167 6.5 8.85938C6.5 8.19792 6.29688 7.6901 5.89062 7.33594C5.48438 6.98177 4.89844 6.79948 4.13281 6.78906H3.04688V5.60938ZM17.0625 7.14844C17.0625 8.84115 16.7734 10.099 16.1953 10.9219C15.6172 11.7448 14.7135 12.1562 13.4844 12.1562C12.2708 12.1562 11.3724 11.7552 10.7891 10.9531C10.2057 10.1458 9.90365 8.94271 9.88281 7.34375V5.41406C9.88281 3.74219 10.1719 2.5 10.75 1.6875C11.3281 0.875 12.2344 0.46875 13.4688 0.46875C14.6927 0.46875 15.5938 0.861979 16.1719 1.64844C16.75 2.42969 17.0469 3.63802 17.0625 5.27344V7.14844ZM15.6172 5.17188C15.6172 3.94792 15.4453 3.05729 15.1016 2.5C14.7578 1.9375 14.2135 1.65625 13.4688 1.65625C12.7292 1.65625 12.1901 1.9349 11.8516 2.49219C11.513 3.04948 11.3385 3.90625 11.3281 5.0625V7.375C11.3281 8.60417 11.5052 9.51302 11.8594 10.1016C12.2188 10.6849 12.7604 10.9766 13.4844 10.9766C14.1979 10.9766 14.7266 10.7005 15.0703 10.1484C15.4193 9.59635 15.6016 8.72656 15.6172 7.53906V5.17188ZM18.9844 2.5C18.9844 1.95833 19.1771 1.48438 19.5625 1.07812C19.9531 0.671875 20.4245 0.46875 20.9766 0.46875C21.5182 0.46875 21.9792 0.671875 22.3594 1.07812C22.7448 1.47917 22.9375 1.95312 22.9375 2.5C22.9375 3.05208 22.7448 3.52344 22.3594 3.91406C21.9792 4.30469 21.5182 4.5 20.9766 4.5C20.4297 4.5 19.9609 4.30469 19.5703 3.91406C19.1797 3.52344 18.9844 3.05208 18.9844 2.5ZM20.9766 3.5C21.2578 3.5 21.4948 3.40885 21.6875 3.22656C21.8802 3.03906 21.9766 2.79688 21.9766 2.5C21.9766 2.19792 21.8802 1.95052 21.6875 1.75781C21.4948 1.5599 21.2578 1.46094 20.9766 1.46094C20.6901 1.46094 20.4479 1.5651 20.25 1.77344C20.0573 1.97656 19.9609 2.21875 19.9609 2.5C19.9609 2.78125 20.0573 3.01823 20.25 3.21094C20.4479 3.40365 20.6901 3.5 20.9766 3.5Z" fill="white"/>
</svg>
