<svg width="16" height="17" viewBox="0 0 16 17" fill="none" xmlns="http://www.w3.org/2000/svg">
<path d="M4.341 0.772726C4.341 0.345961 4.68696 -9.1551e-07 5.11373 -8.78201e-07L13.6137 -1.35108e-07C14.4637 -6.07986e-08 15.1592 0.695455 15.1592 1.54545L15.1592 11.5909C15.1592 12.0177 14.8132 12.3636 14.3865 12.3636C13.9597 12.3636 13.6137 12.0177 13.6137 11.5909L13.6137 3.54546C13.6137 2.44089 12.7183 1.54545 11.6137 1.54545L5.11373 1.54545C4.68696 1.54545 4.341 1.19949 4.341 0.772726ZM2.02282 3.09091L10.5228 3.09091C11.3728 3.09091 12.0683 3.78636 12.0683 4.63636L12.0683 15.4545C12.0683 16.3045 11.3728 17 10.5228 17L2.02282 17C1.17282 17 0.477361 16.3045 0.477361 15.4545L0.477362 4.63636C0.477362 3.78636 1.17282 3.09091 2.02282 3.09091ZM2.02282 13.4545C2.02282 14.5591 2.91825 15.4545 4.02282 15.4545L8.52281 15.4545C9.62738 15.4545 10.5228 14.5591 10.5228 13.4545L10.5228 6.63637C10.5228 5.5318 9.62739 4.63636 8.52282 4.63636L4.02282 4.63636C2.91825 4.63636 2.02282 5.53179 2.02282 6.63636L2.02282 13.4545Z" fill="white"/>
</svg>
