<svg width="15" height="15" viewBox="0 0 15 15" fill="none" xmlns="http://www.w3.org/2000/svg">
<path d="M14.375 10.625H11.875V5.00004C11.875 3.96629 11.0337 3.12504 9.99996 3.12504H4.37496V0.624962C4.37496 0.27935 4.09561 0 3.75 0C3.40439 0 3.12504 0.27935 3.12504 0.624962V3.12504H0.624962C0.27935 3.12504 0 3.40439 0 3.75C0 4.09561 0.27935 4.37496 0.624962 4.37496H3.12504V9.99996C3.12504 11.0337 3.96629 11.875 5.00004 11.875H10.625V14.375C10.625 14.7206 10.9044 15 11.25 15C11.5956 15 11.875 14.7206 11.875 14.375V11.875H14.375C14.7206 11.875 15 11.5956 15 11.25C15 10.9044 14.7206 10.625 14.375 10.625ZM5.00004 10.625C4.655 10.625 4.37496 10.345 4.37496 9.99996V4.37496H9.99996C10.345 4.37496 10.625 4.655 10.625 5.00004V10.625H5.00004Z" fill="white"/>
</svg>
