<svg width="16" height="11" viewBox="0 0 16 11" fill="none" xmlns="http://www.w3.org/2000/svg">
<path d="M14.5938 0H1.40625C0.631813 0 0 0.569631 0 1.26923V9.73077C0 10.428 0.629 11 1.40625 11H14.5938C15.3663 11 16 10.4323 16 9.73077V1.26923C16 0.572 15.371 0 14.5938 0ZM14.3996 0.846154L8.02981 6.59529L1.60497 0.846154H14.3996ZM0.9375 9.55556V1.44041L5.45247 5.48051L0.9375 9.55556ZM1.60041 10.1538L6.11822 6.07623L7.70125 7.49275C7.8845 7.65673 8.18022 7.6562 8.36272 7.49145L9.90625 6.09832L14.3996 10.1538H1.60041ZM15.0625 9.55553L10.5692 5.5L15.0625 1.44444V9.55553Z" fill="#EEEEEE"/>
</svg>
