<svg width="14" height="12" viewBox="0 0 14 12" fill="none" xmlns="http://www.w3.org/2000/svg">
<path d="M12.6665 3.99997H7.33319C6.96469 3.99997 6.6665 4.29815 6.6665 4.66665V5.33334C6.6665 5.70183 6.96469 6.00002 7.33319 6.00002C7.70169 6.00002 7.99987 5.70183 7.99987 5.33334H9.33318V10.6666C8.96468 10.6666 8.66649 10.9648 8.66649 11.3333C8.66649 11.7018 8.96468 12 9.33318 12H10.6665C11.035 12 11.3332 11.7018 11.3332 11.3333C11.3332 10.9648 11.035 10.6666 10.6665 10.6666V5.33334H11.9998C11.9998 5.70183 12.298 6.00002 12.6665 6.00002C13.035 6.00002 13.3332 5.70183 13.3332 5.33334V4.66665C13.3332 4.29815 13.035 3.99997 12.6665 3.99997Z" fill="white"/>
<path d="M5.33335 10.6666V1.33337H8.00002C8.00002 1.70187 8.29821 2.00005 8.6667 2.00005C9.0352 2.00005 9.33339 1.70187 9.33339 1.33337V0.666684C9.33339 0.298186 9.0352 0 8.6667 0H0.666684C0.298186 0 0 0.298186 0 0.666684V1.33337C0 1.70187 0.298186 2.00005 0.666684 2.00005C1.03518 2.00005 1.33337 1.70187 1.33337 1.33337H4.00004V10.6666C3.63154 10.6666 3.33336 10.9648 3.33336 11.3333C3.33336 11.7018 3.63154 12 4.00004 12H5.33335C5.70185 12 6.00003 11.7018 6.00003 11.3333C5.99997 10.9648 5.70185 10.6666 5.33335 10.6666Z" fill="white"/>
</svg>
