<svg width="16" height="15" viewBox="0 0 16 15" fill="none" xmlns="http://www.w3.org/2000/svg">
<path d="M14.961 12.8217L14.368 12.8758L14.3082 12.8883C14.3038 12.8897 14.2618 12.9026 14.1493 12.9026C13.8729 12.9026 13.6715 12.8306 13.5325 12.6811C13.4207 12.5625 13.2304 12.2642 12.9604 11.5173L9.32793 1.45097C9.08698 0.777229 8.57151 0.421082 7.83738 0.421082C7.09237 0.421082 6.56368 0.776704 6.30772 1.45185L2.5322 11.6946C2.28054 12.3973 2.18624 12.5525 2.15551 12.5947C2.01583 12.8049 1.82221 12.9028 1.54626 12.9028H1.37069C1.27942 12.849 1.16849 12.8219 1.03917 12.8219C0.37865 12.8219 0 13.1784 0 13.8C0 14.3953 0.38615 14.7368 1.05937 14.7368C1.25403 14.7368 1.54483 14.7134 1.92278 14.6671L2.77584 14.5664C2.95375 14.5448 3.27756 14.5337 3.73822 14.5337C4.25139 14.5337 4.51146 14.5523 4.63844 14.5678L5.64939 14.6945C5.85354 14.7229 6.01164 14.7366 6.13308 14.7366C7.16081 14.7366 7.31423 14.1497 7.31423 13.7998C7.31423 13.1784 6.91326 12.8217 6.21398 12.8217C6.08215 12.8217 5.89069 12.8351 5.62633 12.8629C5.39466 12.8888 5.20499 12.9026 5.07765 12.9026C4.59449 12.9026 4.55413 12.7143 4.55413 12.5214C4.55413 12.4176 4.5761 12.3044 4.6179 12.1883L5.20589 10.6279C5.41559 10.086 5.51739 9.97204 5.53364 9.95652C5.54152 9.94937 5.61831 9.88577 5.90981 9.88577H9.5221C9.84165 9.88577 9.91844 9.92634 9.91683 9.92526C9.92001 9.92777 9.97806 9.97403 10.062 10.1976L10.7921 12.1849C10.9187 12.5348 10.9371 12.6207 10.9387 12.622C10.9387 12.7404 10.9387 12.9024 10.5368 12.9024C10.4575 12.9024 10.3051 12.8956 10.0284 12.8626C9.77875 12.8349 9.59316 12.8215 9.46113 12.8215C8.45094 12.8215 8.30017 13.4208 8.30017 13.7779C8.30017 14.387 8.69365 14.7362 9.37991 14.7362C9.53798 14.7362 9.75835 14.723 10.0552 14.6953C11.1634 14.5876 11.9741 14.5331 12.4646 14.5331C12.8711 14.5331 13.5018 14.5859 14.3398 14.6898C14.5965 14.721 14.7998 14.7362 14.9609 14.7362C15.6214 14.7362 16 14.3797 16 13.7581C16.0002 13.1632 15.6214 12.8217 14.961 12.8217ZM9.31949 8.01071H6.15324L7.75362 3.20868L9.31949 8.01071Z" fill="white"/>
</svg>
