<svg width="46" height="16" viewBox="0 0 46 16" fill="none" xmlns="http://www.w3.org/2000/svg">
<path d="M0 0.12246C0.44902 0.04082 0.857219 0 1.34706 0C1.79608 0 2.2451 0.04082 2.69412 0.12246V14.0012C2.2451 14.0829 1.79608 14.1237 1.34706 14.1237C0.898039 14.1237 0.44902 14.0829 0 14.0012V0.12246ZM3.0615 8.85793L5.5107 4.20446C6.00054 4.12282 6.49038 4.082 7.02103 4.082C7.51087 4.082 7.95989 4.12282 8.40891 4.20446L5.9189 8.73547L8.85793 14.0012C8.32727 14.0829 7.83743 14.1237 7.34759 14.1237C6.89857 14.1237 6.44955 14.0829 5.95972 14.0012L3.0615 8.85793Z" fill="#343127"/>
<path d="M10.3277 4.16363C10.5318 4.12281 10.6951 4.08199 10.8584 4.08199C11.0217 4.08199 11.2258 4.04117 11.4299 4.04117C11.634 4.04117 11.7973 4.04117 12.0014 4.08199C12.1646 4.12281 12.3687 4.12281 12.532 4.16363C12.5728 4.24527 12.6137 4.32691 12.6545 4.44937C12.6953 4.57183 12.6953 4.69429 12.7361 4.81675C12.7769 4.93921 12.7769 5.10249 12.8178 5.22495C12.8178 5.34741 12.8586 5.46987 12.8586 5.55151C13.1443 5.14331 13.4709 4.81675 13.8791 4.49019C14.2873 4.16363 14.7771 4.04117 15.3894 4.04117C15.5119 4.04117 15.6751 4.04117 15.8384 4.04117C16.0017 4.04117 16.1242 4.08199 16.2058 4.08199C16.2466 4.20445 16.2466 4.36773 16.2466 4.53101C16.2466 4.69429 16.2466 4.85757 16.2466 5.06167C16.2466 5.26577 16.2466 5.51069 16.2058 5.75561C16.2058 6.00053 16.165 6.24545 16.0833 6.49037C15.9609 6.44955 15.7976 6.44955 15.6343 6.44955C15.471 6.44955 15.3486 6.44955 15.3078 6.44955C15.1037 6.44955 14.8587 6.49037 14.573 6.53119C14.2873 6.57201 14.0423 6.69447 13.7974 6.89857C13.5525 7.10267 13.3484 7.38841 13.1851 7.75579C13.0219 8.12317 12.9402 8.65383 12.9402 9.34776V14.0012C12.6953 14.0421 12.4912 14.0829 12.2463 14.0829C12.0014 14.0829 11.7973 14.0829 11.5932 14.0829C11.3891 14.0829 11.1441 14.0829 10.94 14.0829C10.7359 14.0829 10.491 14.0421 10.2461 14.0012L10.3277 4.16363Z" fill="#343127"/>
<path d="M33.1051 0C32.6561 0 32.2071 0.04082 31.7581 0.12246V4.082V4.40856C31.309 4.36774 30.9008 4.32692 30.5335 4.32692C30.0436 4.32692 29.513 4.40856 29.0231 4.57184C28.5333 4.73512 28.0434 5.02086 27.6352 5.38824C27.227 5.75562 26.9005 6.24546 26.6147 6.89857C26.3698 7.51087 26.2065 8.28645 26.2065 9.22531C26.2065 10.1642 26.329 10.9398 26.5331 11.5521C26.7372 12.2052 27.0229 12.695 27.4311 13.1032C27.7985 13.5114 28.2884 13.7971 28.819 13.9604C29.3497 14.1237 29.962 14.2053 30.6151 14.2053C31.2274 14.2053 31.7581 14.1645 32.2479 14.0421C32.5336 14.0829 32.7786 14.0829 33.0643 14.0829C33.5133 14.0829 33.9623 14.0421 34.4114 13.9604V0.0816399C34.0032 0.04082 33.5541 0 33.1051 0ZM31.7581 11.8786C31.6356 11.9194 31.4723 12.0011 31.309 12.0419C31.1458 12.1235 30.9417 12.1235 30.7784 12.1235C30.6151 12.1235 30.4518 12.1235 30.2477 12.0827C30.0436 12.0419 29.8395 11.9603 29.6354 11.797C29.4313 11.6337 29.3089 11.3888 29.1456 11.0622C29.0231 10.7357 28.9415 10.2458 28.9415 9.59269C28.9415 8.65383 29.1048 7.95989 29.4721 7.51087C29.7987 7.10267 30.2885 6.85775 30.86 6.85775C30.9825 6.85775 31.1458 6.85775 31.309 6.89857C31.4723 6.93939 31.6356 6.98022 31.7581 7.02104V11.8786Z" fill="#343127"/>
<path d="M43.1875 3.02068C43.1875 3.6738 43.1875 4.32692 43.1875 4.93922C44.0447 4.93922 44.8611 4.93922 45.7183 4.93922C45.7183 5.55152 45.7183 6.16382 45.7183 6.81694C44.8611 6.81694 44.0447 6.81694 43.1875 6.81694C43.1875 6.85776 43.1875 6.89857 43.1875 6.93939C43.1875 8.36809 43.1875 9.79679 43.1875 11.1847C43.1875 11.3071 43.1875 11.3888 43.2283 11.5112C43.3099 11.9603 43.6773 12.246 44.1263 12.246C44.657 12.2868 45.1876 12.1643 45.7183 12.0011C45.7591 12.0011 45.7999 11.9603 45.8408 11.9603C45.8408 12.0011 45.8408 12.0419 45.8408 12.0419C45.8408 12.6134 45.8408 13.144 45.8408 13.7155C45.8408 13.7971 45.7999 13.7971 45.7591 13.838C45.2693 14.0421 44.7386 14.1645 44.208 14.1645C43.7998 14.1645 43.3916 14.2053 43.0242 14.1645C42.4935 14.1237 42.0037 13.9604 41.5955 13.6339C41.2281 13.3073 41.024 12.8991 40.8607 12.4501C40.7383 12.0419 40.6974 11.5929 40.6974 11.1439C40.6974 9.71515 40.6974 8.32727 40.6974 6.89857C40.6974 6.85775 40.6974 6.81694 40.6974 6.77612C40.2892 6.77612 39.9219 6.77612 39.5137 6.77612C39.5137 6.7353 39.5137 6.73529 39.5137 6.69447C39.5137 6.40874 39.5137 6.08218 39.5137 5.79644C39.5137 5.75562 39.5545 5.7148 39.5953 5.67398C40.0035 5.42906 40.4117 5.18414 40.8199 4.93922C40.8607 4.8984 40.9016 4.85758 40.9424 4.81676C41.1465 4.24528 41.3914 3.6738 41.5955 3.0615C41.6363 2.97986 41.6771 2.97986 41.7588 2.97986C42.2078 2.97986 42.6568 2.97986 43.1466 2.97986C43.1058 3.02068 43.1466 3.02068 43.1875 3.02068Z" fill="#343127"/>
<path d="M38.7381 14.1237C38.7381 10.9398 38.7381 7.75579 38.7381 4.57184C37.6359 4.40856 36.5746 4.53102 36.248 4.57184C36.248 7.75579 36.248 10.9398 36.248 14.1237C37.3094 14.3278 38.4115 14.2053 38.7381 14.1237Z" fill="#343127"/>
<path d="M25.5535 8.77631C25.5535 6.73531 24.6963 4.69432 22.5737 4.08202V1.67364C22.1247 1.592 21.6756 1.55118 21.2266 1.55118C20.7776 1.55118 20.3286 1.592 19.8796 1.67364V4.0412C17.3895 4.6535 16.2466 6.98023 16.2466 9.10287C16.2466 11.6337 17.5528 13.389 19.8796 13.9196V15.5524C20.3286 15.6341 20.7368 15.6749 21.2266 15.6749C21.6756 15.6749 22.1247 15.6341 22.5737 15.5524V14.0421C23.4717 13.9604 24.3289 13.7972 25.0229 13.5114L24.6147 11.4296C23.7983 11.6745 22.9411 11.8378 21.9206 11.8378C20.4919 11.8378 19.2673 11.2255 19.1448 9.96009H25.4719C25.5127 9.75599 25.5535 9.30697 25.5535 8.77631ZM19.1448 7.91909C19.2264 7.10269 19.7571 5.91891 21.0225 5.91891C22.4104 5.91891 22.737 7.14351 22.737 7.91909H19.1448Z" fill="#F89821"/>
</svg>
