<svg width="13" height="17" viewBox="0 0 13 17" fill="none" xmlns="http://www.w3.org/2000/svg">
<path d="M12.6838 8.8062C12.4743 8.60078 12.2174 8.49612 11.917 8.49612C11.7249 8.49612 11.5692 8.3404 11.5692 8.1483V4.83745C11.5692 4.83303 11.5656 4.82946 11.5612 4.82946C11.5568 4.82946 11.5533 4.82595 11.5532 4.82161C11.5237 3.51487 11.0297 2.3896 10.0711 1.45349C9.083 0.484496 7.88933 0 6.49802 0C5.10672 0 3.917 0.484496 2.9249 1.45349C1.93676 2.42248 1.44269 3.58915 1.44269 4.95736V8.14032C1.44269 8.33896 1.28165 8.5 1.083 8.5C0.782609 8.5 0.525692 8.60465 0.316206 8.81008C0.106719 9.0155 0 9.26744 0 9.56202V15.938C0 16.2326 0.106719 16.4845 0.316206 16.6899C0.525692 16.8953 0.782609 17 1.083 17H11.917C12.2174 17 12.4743 16.8953 12.6838 16.6899C12.8933 16.4845 13 16.2326 13 15.938V9.55814C13 9.26357 12.8933 9.01163 12.6838 8.8062ZM3.61265 4.95349C3.61265 4.17054 3.89328 3.50388 4.4585 2.94961C5.01976 2.39922 5.70356 2.12016 6.50198 2.12016C7.3004 2.12016 7.98024 2.39535 8.54545 2.94961C9.11067 3.50388 9.3913 4.17054 9.3913 4.95349C9.3913 5.04679 9.40316 5.13992 9.40316 5.23323V6.49612C9.40316 7.60069 8.50773 8.49612 7.40316 8.49612H5.61265C4.50808 8.49612 3.61265 7.60069 3.61265 6.49612V4.95349ZM7.47431 14.5698C7.48617 14.6589 7.45455 14.7519 7.39526 14.8178C7.33202 14.8837 7.24506 14.9225 7.15415 14.9225H5.8498C5.75889 14.9225 5.66798 14.8837 5.6087 14.8178C5.54545 14.7519 5.51779 14.6589 5.52964 14.5698L5.6022 13.9308C5.68426 13.2081 5.21558 12.4839 5.20181 11.7567C5.20166 11.7487 5.20158 11.7406 5.20158 11.7326C5.20158 11.031 5.78656 10.4574 6.50198 10.4574C7.22134 10.4574 7.80237 11.031 7.80237 11.7326C7.80237 11.7416 7.80228 11.7505 7.80209 11.7595C7.78679 12.4851 7.31955 13.2068 7.40143 13.928L7.47431 14.5698Z" fill="white"/>
</svg>
