<svg width="59" height="15" viewBox="0 0 59 15" fill="none" xmlns="http://www.w3.org/2000/svg">
<path d="M45.373 3.91302H42.2052C42.0189 3.91302 41.8326 4.09936 41.7394 4.2857L40.4351 12.4845C40.4351 12.6708 40.5282 12.764 40.7146 12.764H42.3916C42.5779 12.764 42.6711 12.6708 42.6711 12.4845L43.0438 10.1553C43.0438 9.96893 43.2301 9.7826 43.5096 9.7826H44.5344C46.6773 9.7826 47.8885 8.75775 48.168 6.70806C48.3543 5.86955 48.168 5.12421 47.7953 4.65837C47.2363 4.19253 46.3978 3.91302 45.373 3.91302ZM45.7456 6.98757C45.5593 8.10558 44.7208 8.10558 43.8823 8.10558H43.3233L43.6959 5.96272C43.6959 5.86955 43.7891 5.77638 43.9754 5.77638H44.1618C44.7208 5.77638 45.2798 5.77638 45.5593 6.14905C45.7456 6.24222 45.7456 6.52173 45.7456 6.98757Z" fill="#139AD6"/>
<path d="M22.5468 3.91302H19.3791C19.1927 3.91302 19.0064 4.09936 18.9132 4.2857L17.6089 12.4845C17.6089 12.6708 17.7021 12.764 17.8884 12.764H19.3791C19.5654 12.764 19.7517 12.5776 19.8449 12.3913L20.2176 10.1553C20.2176 9.96893 20.4039 9.7826 20.6834 9.7826H21.7083C23.8511 9.7826 25.0623 8.75775 25.3418 6.70806C25.5282 5.86955 25.3418 5.12421 24.9691 4.65837C24.4101 4.19253 23.6648 3.91302 22.5468 3.91302ZM22.9195 6.98757C22.7331 8.10558 21.8946 8.10558 21.0561 8.10558H20.5903L20.9629 5.96272C20.9629 5.86955 21.0561 5.77638 21.2424 5.77638H21.4288C21.9878 5.77638 22.5468 5.77638 22.8263 6.14905C22.9195 6.24222 23.0126 6.52173 22.9195 6.98757Z" fill="#263B80"/>
<path d="M32.1429 6.89441H30.6522C30.5591 6.89441 30.3727 6.98757 30.3727 7.08074L30.2796 7.54658L30.1864 7.36024C29.8137 6.89441 29.1616 6.70807 28.4162 6.70807C26.7392 6.70807 25.2485 8.01242 24.969 9.78261C24.7827 10.7143 25.0622 11.5528 25.528 12.1118C25.9939 12.6708 26.646 12.8571 27.4845 12.8571C28.8821 12.8571 29.6274 12.0186 29.6274 12.0186L29.5342 12.4845C29.5342 12.6708 29.6274 12.764 29.8137 12.764H31.2112C31.3976 12.764 31.5839 12.5776 31.6771 12.3913L32.5156 7.17391C32.4224 7.08074 32.2361 6.89441 32.1429 6.89441ZM30.0001 9.87577C29.8137 10.7143 29.1616 11.3665 28.2299 11.3665C27.764 11.3665 27.3914 11.1801 27.205 10.9938C27.0187 10.7143 26.9255 10.3416 26.9255 9.87577C27.0187 9.03726 27.764 8.38509 28.6026 8.38509C29.0684 8.38509 29.3479 8.57142 29.6274 8.75776C29.9069 9.03726 30.0001 9.5031 30.0001 9.87577Z" fill="#263B80"/>
<path d="M54.8758 6.89441H53.3852C53.292 6.89441 53.1056 6.98757 53.1056 7.08074L53.0125 7.54658L52.9193 7.36024C52.5466 6.89441 51.8945 6.70807 51.1491 6.70807C49.4721 6.70807 47.9814 8.01242 47.7019 9.78261C47.5156 10.7143 47.7951 11.5528 48.2609 12.1118C48.7268 12.6708 49.3789 12.8571 50.2175 12.8571C51.615 12.8571 52.3603 12.0186 52.3603 12.0186L52.2671 12.4845C52.2671 12.6708 52.3603 12.764 52.5466 12.764H53.9442C54.1305 12.764 54.3168 12.5776 54.41 12.3913L55.2485 7.17391C55.1553 7.08074 55.0622 6.89441 54.8758 6.89441ZM52.733 9.87577C52.5466 10.7143 51.8945 11.3665 50.9628 11.3665C50.497 11.3665 50.1243 11.1801 49.9379 10.9938C49.7516 10.7143 49.6584 10.3416 49.6584 9.87577C49.7516 9.03726 50.497 8.38509 51.3355 8.38509C51.8013 8.38509 52.0808 8.57142 52.3603 8.75776C52.733 9.03726 52.8261 9.5031 52.733 9.87577Z" fill="#139AD6"/>
<path d="M40.2486 6.89441H38.6648C38.4784 6.89441 38.3853 6.98758 38.2921 7.08074L36.2424 10.2484L35.3107 7.26708C35.2176 7.08074 35.1244 6.98758 34.8449 6.98758H33.3542C33.1679 6.98758 33.0747 7.17391 33.0747 7.36025L34.7517 12.2981L33.1679 14.5342C33.0747 14.7205 33.1679 15 33.3542 15H34.8449C35.0312 15 35.1244 14.9068 35.2176 14.8137L40.3418 7.45342C40.6213 7.17391 40.435 6.89441 40.2486 6.89441Z" fill="#263B80"/>
<path d="M56.6461 4.19255L55.3418 12.5777C55.3418 12.764 55.435 12.8572 55.6213 12.8572H56.9256C57.112 12.8572 57.2983 12.6708 57.3915 12.4845L58.6958 4.28572C58.6958 4.09938 58.6027 4.00622 58.4163 4.00622H56.9256C56.8325 3.91305 56.7393 4.00622 56.6461 4.19255Z" fill="#139AD6"/>
<path d="M10.7143 1.11801C10.0621 0.37267 8.85094 0 7.17392 0H2.51553C2.23603 0 1.95652 0.279502 1.86336 0.559005L0 12.764C0 13.0435 0.186336 13.2298 0.372671 13.2298H3.26087L4.00622 8.6646V8.85094C4.09938 8.57143 4.37889 8.29193 4.65839 8.29193H6.05591C8.75777 8.29193 10.8075 7.17392 11.4596 4.09938C11.4596 4.00621 11.4596 3.91305 11.4596 3.81988C11.3665 3.81988 11.3665 3.81988 11.4596 3.81988C11.5528 2.6087 11.3665 1.86335 10.7143 1.11801Z" fill="#263B80"/>
<path d="M11.3665 3.81989C11.3665 3.91305 11.3665 4.00622 11.3665 4.09939C10.7144 7.2671 8.66468 8.29194 5.96281 8.29194H4.5653C4.28579 8.29194 4.00629 8.57144 3.91312 8.85095L2.98145 14.5342C2.98145 14.7205 3.07461 14.9069 3.35412 14.9069H5.77648C6.05598 14.9069 6.33549 14.7205 6.33549 14.441V14.3478L6.80132 11.4596V11.2733C6.80132 10.9938 7.08083 10.8075 7.36033 10.8075H7.733C10.0622 10.8075 11.9256 9.87579 12.3914 7.08076C12.5777 5.96274 12.4846 4.9379 11.9256 4.28572C11.8324 4.09939 11.646 3.91305 11.3665 3.81989Z" fill="#139AD6"/>
<path d="M10.7144 3.54037C10.6213 3.54037 10.5281 3.4472 10.4349 3.4472C10.3418 3.4472 10.2486 3.4472 10.1554 3.35403C9.78275 3.26086 9.41008 3.26086 8.94424 3.26086H5.3107C5.21753 3.26086 5.12436 3.26086 5.03119 3.35403C4.84486 3.4472 4.75169 3.63353 4.75169 3.81987L4.00635 8.66459V8.85093C4.09952 8.57143 4.37902 8.29192 4.65852 8.29192H6.05604C8.7579 8.29192 10.8076 7.17391 11.4598 4.09937C11.4598 4.00621 11.4598 3.91304 11.5529 3.81987C11.3666 3.7267 11.2734 3.63353 11.0871 3.63353C10.8076 3.54037 10.8076 3.54037 10.7144 3.54037Z" fill="#232C65"/>
</svg>
