<svg width="15" height="16" viewBox="0 0 15 16" fill="none" xmlns="http://www.w3.org/2000/svg">
<path d="M12.6679 3.27959H12.2623V2.36435C12.2623 1.06114 11.2157 0 9.93022 0H5.0338C3.74837 0 2.7017 1.06114 2.7017 2.36435V3.27959H2.3321C1.04666 3.27959 0 4.34073 0 5.64394V9.45741C0 10.7606 1.04666 11.8218 2.3321 11.8218H2.69843V14.8195C2.69843 15.4694 3.22176 16 3.86284 16H11.0946C11.7357 16 12.2591 15.4694 12.2591 14.8195V11.8218H12.6679C13.9533 11.8218 15 10.7606 15 9.45741V5.64394C15 4.34073 13.9533 3.27959 12.6679 3.27959ZM3.58155 2.36435C3.58155 1.55523 4.23245 0.895337 5.03053 0.895337H9.92368C10.7218 0.895337 11.3727 1.55523 11.3727 2.36435V3.27959H3.58155V2.36435ZM11.3759 14.8261C11.3759 14.982 11.2484 15.1113 11.0946 15.1113H3.86284C3.70912 15.1113 3.58155 14.982 3.58155 14.8261V9.88187H11.3759V14.8261ZM14.1169 9.46073C14.1169 10.2698 13.466 10.9297 12.6679 10.9297H12.2623V9.88187H12.8445C13.0898 9.88187 13.2861 9.6829 13.2861 9.4342C13.2861 9.18549 13.0898 8.98653 12.8445 8.98653H2.05081C1.8055 8.98653 1.60925 9.18549 1.60925 9.4342C1.60925 9.6829 1.8055 9.88187 2.05081 9.88187H2.7017V10.9297H2.3321C1.53402 10.9297 0.883123 10.2698 0.883123 9.46073V5.64725C0.883123 4.83814 1.53402 4.17824 2.3321 4.17824H12.6679C13.466 4.17824 14.1169 4.83814 14.1169 5.64725V9.46073Z" fill="white"/>
</svg>
