<svg width="14" height="14" viewBox="0 0 14 14" fill="none" xmlns="http://www.w3.org/2000/svg">
<path d="M0.583293 7C0.583293 6.7585 0.779292 6.5625 1.02079 6.5625L8.3125 6.5625C8.554 6.5625 8.75 6.7585 8.75 7C8.75 7.2415 8.554 7.4375 8.3125 7.4375L1.02079 7.4375C0.779292 7.4375 0.583293 7.2415 0.583293 7Z" fill="white"/>
<path d="M9.3333 11.8124L9.3333 8.02066C9.3333 7.77916 9.52929 7.58316 9.7708 7.58316C10.0123 7.58316 10.2083 7.77916 10.2083 8.02066L10.2083 11.3749L13.5625 11.3749C13.804 11.3749 14 11.5709 14 11.8124C14 12.0539 13.804 12.2499 13.5625 12.2499L9.7708 12.2499C9.52929 12.2499 9.3333 12.0539 9.3333 11.8124Z" fill="white"/>
<path d="M9.33349 11.8126C9.33349 11.6306 9.44725 11.4614 9.62808 11.399C11.5456 10.7375 12.8335 8.97 12.8335 7.00007C12.8335 5.03015 11.5456 3.26263 9.62808 2.60115C9.3994 2.52242 9.27817 2.27387 9.35742 2.04466C9.43625 1.81661 9.68533 1.69528 9.91391 1.774C12.1837 2.55735 13.7085 4.65737 13.7085 7.00007C13.7085 9.34277 12.1837 11.4428 9.91391 12.2262C9.68533 12.3049 9.43678 12.1835 9.35742 11.9555C9.34108 11.9083 9.33349 11.8598 9.33349 11.8126Z" fill="white"/>
<path d="M0.000193564 0.729202C0.000193582 0.32727 0.327464 -3.93666e-07 0.729396 -3.76097e-07L8.6044 -3.18698e-08C9.00633 -1.43008e-08 9.3335 0.327271 9.3335 0.729203C9.3335 0.921036 9.25713 1.10368 9.11774 1.24254C9.11015 1.25012 9.0623 1.2921 9.05408 1.29904L5.36107 4.99387C5.18835 5.17299 5.00581 5.25 4.8127 5.25C4.63186 5.25 4.45862 5.1841 4.32328 5.0633L0.233577 1.26582C0.089488 1.13637 0.000193555 0.934494 0.000193564 0.729202ZM0.827983 0.623566C0.826808 0.622391 0.824992 0.620682 0.823283 0.618866L0.827983 0.623566ZM8.24274 0.875L1.098 0.875L4.80511 4.31722L8.24274 0.875ZM4.70653 4.4158L4.70653 4.42221L4.70653 4.4158Z" fill="white"/>
<path d="M0.000229638 13.2708C0.000229647 13.0655 0.0895241 12.8636 0.238847 12.7289L4.31691 8.94247C4.45865 8.8159 4.6319 8.75 4.81273 8.75C5.00638 8.75 5.18957 8.82755 5.32778 8.96758C5.33483 8.97462 5.37627 9.02184 5.38268 9.02888L9.07687 12.7225C9.63453 13.262 9.19885 14 8.60444 14L0.729433 14C0.3275 14 0.00022962 13.6727 0.000229638 13.2708ZM0.832613 13.3717L0.828554 13.3758C0.830263 13.3746 0.831438 13.3736 0.832613 13.3717ZM4.8028 9.68567L1.09868 13.125L8.24801 13.125L4.8028 9.68567Z" fill="white"/>
</svg>
