<svg width="14" height="14" viewBox="0 0 14 14" fill="none" xmlns="http://www.w3.org/2000/svg">
<path d="M7 13.4167C6.7585 13.4167 6.5625 13.2207 6.5625 12.9792V5.6875C6.5625 5.446 6.7585 5.25 7 5.25C7.2415 5.25 7.4375 5.446 7.4375 5.6875V12.9792C7.4375 13.2207 7.2415 13.4167 7 13.4167Z" fill="white"/>
<path d="M11.8122 4.6667H8.02051C7.77901 4.6667 7.58301 4.47071 7.58301 4.2292C7.58301 3.9877 7.77901 3.7917 8.02051 3.7917H11.3747V0.4375C11.3747 0.195999 11.5707 0 11.8122 0C12.0537 0 12.2497 0.195999 12.2497 0.4375V4.2292C12.2497 4.47071 12.0537 4.6667 11.8122 4.6667Z" fill="white"/>
<path d="M11.8126 4.66669C11.6306 4.66669 11.4614 4.55294 11.399 4.3721C10.7375 2.45462 8.97 1.16669 7.00007 1.16669C5.03015 1.16669 3.26263 2.45462 2.60115 4.3721C2.52243 4.60079 2.27387 4.72202 2.04466 4.64276C1.81661 4.56394 1.69528 4.31485 1.774 4.08628C2.55735 1.81653 4.65737 0.291687 7.00007 0.291687C9.34277 0.291687 11.4428 1.81653 12.2262 4.08628C12.3049 4.31485 12.1835 4.5634 11.9555 4.64276C11.9083 4.65911 11.8598 4.66669 11.8126 4.66669Z" fill="white"/>
<path d="M0.729203 14C0.327271 14 0 13.6727 0 13.2708V5.39578C0 4.99385 0.327271 4.66669 0.729203 4.66669C0.921036 4.66669 1.10368 4.74306 1.24254 4.88245C1.25012 4.89003 1.2921 4.93788 1.29904 4.94611L4.99387 8.63912C5.17299 8.81183 5.25 8.99437 5.25 9.18749C5.25 9.36832 5.1841 9.54157 5.0633 9.6769L1.26582 13.7666C1.13637 13.9107 0.934494 14 0.729203 14ZM0.623566 13.1722C0.622391 13.1734 0.620682 13.1752 0.618866 13.1769L0.623566 13.1722ZM0.875 5.75745V12.9022L4.31722 9.19507L0.875 5.75745ZM4.4158 9.29366H4.42221H4.4158Z" fill="white"/>
<path d="M13.2708 14C13.0655 14 12.8636 13.9107 12.7289 13.7614L8.94247 9.68333C8.8159 9.54159 8.75 9.36834 8.75 9.18751C8.75 8.99386 8.82755 8.81068 8.96758 8.67246C8.97462 8.66542 9.02184 8.62397 9.02889 8.61756L12.7225 4.92338C13.262 4.36571 14 4.8014 14 5.39581V13.2708C14 13.6727 13.6727 14 13.2708 14ZM13.3717 13.1676L13.3758 13.1717C13.3746 13.17 13.3736 13.1688 13.3717 13.1676ZM9.68567 9.19744L13.125 12.9016V5.75224L9.68567 9.19744Z" fill="white"/>
</svg>
