<svg width="13" height="17" viewBox="0 0 13 17" fill="none" xmlns="http://www.w3.org/2000/svg">
<path d="M1.48687 16.1802C1.50606 16.6384 1.88311 17 2.34165 17H10.3285C10.787 17 11.1641 16.6384 11.1833 16.1802L11.6544 6.23422C11.7084 5.09378 10.7984 4.13959 9.65664 4.13959H3.01349C1.87176 4.13959 0.961704 5.09378 1.01573 6.23422L1.48687 16.1802ZM8.14178 7.13025C8.14178 6.9384 8.29735 6.78279 8.48929 6.78279H9.04508C9.2369 6.78279 9.39259 6.93836 9.39259 7.13025V14.0093C9.39259 14.2012 9.23702 14.3568 9.04508 14.3568H8.48929C8.29743 14.3568 8.14178 14.2013 8.14178 14.0093V7.13025ZM5.7097 7.13025C5.7097 6.9384 5.86527 6.78279 6.05717 6.78279H6.61297C6.80478 6.78279 6.96043 6.93836 6.96043 7.13025V14.0093C6.96043 14.2012 6.8049 14.3568 6.61297 14.3568H6.05717C5.86531 14.3568 5.7097 14.2013 5.7097 14.0093V7.13025ZM3.27754 7.13025C3.27754 6.9384 3.43311 6.78279 3.625 6.78279H4.18085C4.3727 6.78279 4.52831 6.93836 4.52831 7.13025V14.0093C4.52831 14.2012 4.37274 14.3568 4.18085 14.3568H3.625C3.43315 14.3568 3.27754 14.2013 3.27754 14.0093V7.13025Z" fill="white"/>
<path d="M12.1336 0.875754H9.14559C8.76087 0.875754 8.44899 0.56388 8.44899 0.179163C8.44899 0.0802383 8.3688 0 8.26983 0H4.40062C4.3017 0 4.2215 0.0802383 4.2215 0.179163C4.2215 0.563857 3.90964 0.875713 3.52495 0.875713H0.536864C0.24034 0.875713 0 1.11609 0 1.41262C0 2.34412 0.755129 3.09925 1.68663 3.09925H10.9839C11.9153 3.09925 12.6705 2.34414 12.6705 1.41266C12.6705 1.11614 12.4301 0.875754 12.1336 0.875754Z" fill="white"/>
</svg>
