<svg width="11" height="16" viewBox="0 0 11 16" fill="none" xmlns="http://www.w3.org/2000/svg">
<path d="M0.640699 5.30229C0.448664 5.50073 0.453853 5.81727 0.652289 6.0093C0.850726 6.20134 1.16727 6.19615 1.3593 5.99771L0.640699 5.30229ZM5.5 1L5.8593 0.652289L5.5 0.281012L5.1407 0.652289L5.5 1ZM9.6407 5.99771C9.83273 6.19615 10.1493 6.20134 10.3477 6.0093C10.5461 5.81727 10.5513 5.50073 10.3593 5.30229L9.6407 5.99771ZM1.3593 5.99771L5.8593 1.34771L5.1407 0.652289L0.640699 5.30229L1.3593 5.99771ZM5.1407 1.34771L9.6407 5.99771L10.3593 5.30229L5.8593 0.652289L5.1407 1.34771Z" fill="white"/>
<path d="M5.5 1.3577V14.95" stroke="white" stroke-linecap="round" stroke-linejoin="round"/>
</svg>
