<svg width="65" height="13" viewBox="0 0 65 13" fill="none" xmlns="http://www.w3.org/2000/svg">
<path d="M56.4174 6.31579C56.4174 9.80466 53.5911 12.6316 50.1035 12.6316C46.6158 12.6316 43.7896 9.80403 43.7896 6.31579C43.7896 2.82754 46.6165 0 50.1035 0C53.5904 0 56.4174 2.82754 56.4174 6.31579Z" fill="#E2574C"/>
<path d="M57.6866 0C56.2706 0 54.967 0.4718 53.9135 1.2594L53.9186 1.26003C54.1258 1.46022 54.3544 1.60111 54.5306 1.83158L53.2169 1.85243C53.011 2.06024 52.8234 2.28633 52.6466 2.5213H54.9632C55.1394 2.73285 55.3023 2.91669 55.4501 3.15034H52.2266C52.1085 3.35372 51.9992 3.56278 51.9038 3.78001H55.8171C55.9194 3.99662 56.011 4.16023 56.0887 4.38952H51.6721C51.602 4.60744 51.542 4.83036 51.4965 5.0577H56.2738C56.3205 5.27625 56.3565 5.47831 56.3811 5.68425H51.4017C51.3809 5.89206 51.3701 6.10299 51.3701 6.31586H56.4171C56.4171 6.53946 56.4013 6.74658 56.3786 6.94746H51.4017C51.4232 7.16158 51.4548 7.37188 51.4965 7.57907H56.2661C56.2169 7.78369 56.16 7.98957 56.0887 8.20306H51.6575C51.7244 8.41904 51.806 8.62872 51.895 8.83335H55.8171C55.7085 9.06326 55.5854 9.24703 55.4496 9.46239H52.2153C52.3429 9.68343 52.4837 9.89436 52.6365 10.0965L54.9632 10.1312C54.7649 10.3693 54.5104 10.5127 54.2786 10.7211C54.2912 10.7312 53.9078 10.7199 53.1531 10.7079C54.3013 11.8927 55.9061 12.6316 57.6865 12.6316C61.1748 12.6316 64.0023 9.80403 64.0023 6.31586C64.0023 2.82768 61.1754 0 57.6866 0Z" fill="#F4B459"/>
<path d="M16.4989 0L14.4731 12.6063H17.711L19.7356 0H16.4989ZM26.2658 5.13511C25.1343 4.57633 24.4406 4.1992 24.4406 3.6277C24.4544 3.10807 25.0272 2.57572 26.3062 2.57572C27.3582 2.54929 28.1314 2.79652 28.718 3.0425L29.0118 3.17365L29.452 0.536089C28.8125 0.288866 27.7984 0.0164625 26.5458 0.0164625C23.3482 0.0164625 21.0966 1.67896 21.0827 4.05671C21.0562 5.81134 22.6947 6.78502 23.9208 7.36912C25.1734 7.96829 25.5998 8.35677 25.5998 8.88912C25.586 9.70647 24.587 10.0836 23.6548 10.0836C22.3632 10.0836 21.6694 9.88936 20.6162 9.43392L20.1898 9.23969L19.737 11.9807C20.4976 12.3188 21.8964 12.6164 23.3484 12.6316C26.7465 12.6316 28.9577 10.9943 28.9855 8.46025C28.9966 7.07015 28.1326 6.00544 26.2658 5.13511ZM37.7532 0.0390131H35.248C34.476 0.0390131 33.8895 0.261058 33.5552 1.05322L28.7455 12.6063H32.1437L33.0796 10.105H36.8815L37.3671 12.6164H40.3642L37.7532 0.0390131ZM34.022 7.58079C34.0876 7.58715 35.3263 3.49765 35.3263 3.49765L36.3127 7.58079C36.3127 7.58079 34.6616 7.58079 34.022 7.58079ZM11.7674 0L8.59504 8.56484L8.24946 6.87577C7.66287 4.9269 5.82384 2.80911 3.77148 1.75713L6.67647 12.5937H10.1025L15.1934 0.0013827H11.7674V0Z" fill="#2394BC"/>
<path d="M7.18235 1.62634C6.93513 0.665113 6.14669 0.0168253 5.0759 0.00299072H0.0517413L0 0.236241C3.91919 1.20245 7.20877 4.17549 8.27597 6.97201L7.18235 1.62634Z" fill="#EFC75E"/>
</svg>
